# xmcd
#
# Track frame offsets: 
#        150
#        3076
#        17037
#        28167
#        42774
#        57434
#        68129
#        83165
#        96882
#        107547
#        123884
#
# Disc length: 1831 seconds
#
# Revision: 0
# Processed by: cddbd v1.5.2PL0 Copyright (c) Steve Scherf et al.
# Submitted via: ExactAudioCopy v1.1
#
DISCID=7f07250b
DTITLE=Blaine Sprouse - Brilliancy
DYEAR=1990
DGENRE=Bluegrass
TTITLE0=Don't Let Your Deal Go Down
TTITLE1=Florida Rag
TTITLE2=Fireball Express
TTITLE3=Miss the Mississippi
TTITLE4=Brilliancy
TTITLE5=Did You Ever See the Devil
TTITLE6=Cherokee Maggie
TTITLE7=The Mist on the Moor
TTITLE8=Tennessee Hayride
TTITLE9=Paula's Waltz
TTITLE10=Old Ebenezer
EXTD=
EXTT0=
EXTT1=
EXTT2=
EXTT3=
EXTT4=
EXTT5=
EXTT6=
EXTT7=
EXTT8=
EXTT9=
EXTT10=
PLAYORDER=
